<svg id="Layer_1" data-name="Layer 1" xmlns="http://www.w3.org/2000/svg" viewBox="0 0 175 52"><defs><style>.cls-1,.cls-3,.cls-4{fill:#231f20;}.cls-2,.cls-3,.cls-4{isolation:isolate;}.cls-3,.cls-4{font-size:21.87px;font-family:FuturaPT-Book, Futura PT;}.cls-4{letter-spacing:-0.03em;}.cls-5{fill:#fff;}</style></defs><polygon class="cls-1" points="102.67 47.05 80.29 47.05 84.32 45.72 95.44 45.72 90.26 43.75 90.26 29.16 103.05 14.36 77.69 14.36 85.57 23.8 87.71 27.81 74.74 13.03 105.96 13.03 91.59 29.65 91.59 42.83 102.67 47.05"/><g class="cls-2"><text class="cls-3" transform="translate(15.69 41.53)">M</text><text class="cls-4" transform="translate(34.57 41.53)">O</text><text class="cls-3" transform="translate(51.23 41.53)">VIE</text></g><text class="cls-3" transform="translate(102.51 41.53)">MIXER</text><path class="cls-1" d="M103.68,14.81a4.4,4.4,0,1,1,6.23-.23h0A4.41,4.41,0,0,1,103.68,14.81Zm5.86-6.28a4.2,4.2,0,1,0,.2,5.93h0A4.21,4.21,0,0,0,109.54,8.53Z"/><path class="cls-1" d="M106.66,16.18A4.51,4.51,0,0,1,103.53,15h0a4.63,4.63,0,1,1,3.29,1.23Zm0-8.57h-.15a4.12,4.12,0,1,0,.15,0Z"/><circle class="cls-1" cx="108.42" cy="9.74" r="0.81"/><circle class="cls-1" cx="108.92" cy="12.8" r="0.81"/><circle class="cls-1" cx="105.36" cy="9.46" r="0.81"/><circle class="cls-1" cx="106.33" cy="14.17" r="0.81"/><circle class="cls-1" cx="104.15" cy="12.14" r="0.81"/><circle class="cls-1" cx="106.58" cy="11.7" r="0.32"/><path class="cls-1" d="M113.13,11l-.89,1.44s-.93.83-1.47.74a5.84,5.84,0,0,0,.17-1.61A3.4,3.4,0,0,0,113.13,11Z"/><path class="cls-1" d="M112.43,10.92s1-.23,1.17-.81a1.37,1.37,0,0,0-.12-1.23c-.14-.22-1.38-1-1.22-1.5a1.5,1.5,0,0,0-1.38,1,2.09,2.09,0,0,0,.73,1.37A1.9,1.9,0,0,1,112.43,10.92Z"/><path class="cls-1" d="M111.38,7.33a3.71,3.71,0,0,1,4.54.85l1.13-1.81a3.5,3.5,0,0,0-4.41-.72Z"/><path class="cls-5" d="M111.36,12.5h.26v.34a.77.77,0,0,1-.3.15Z"/><path class="cls-5" d="M112.05,12.25l.19-.07v.19a.86.86,0,0,1-.22.15Z"/><path class="cls-5" d="M111.54,11.66h.26V12a1.28,1.28,0,0,1-.29.13Z"/><path class="cls-5" d="M112.15,11.52h.19v.29l-.19,0Z"/><rect class="cls-5" x="112.51" y="10.27" width="0.33" height="0.33" transform="translate(5.28 46.08) rotate(-23.65)"/><rect class="cls-5" x="111.86" y="9.33" width="0.33" height="0.33" transform="translate(16.71 69.11) rotate(-36.87)"/><rect class="cls-5" x="111.2" y="8.45" width="0.33" height="0.33" transform="translate(2.88 35.2) rotate(-18.19)"/><rect class="cls-5" x="113.17" y="9.52" width="0.33" height="0.33" transform="translate(5.63 46.28) rotate(-23.65)"/><rect class="cls-5" x="112.51" y="8.58" width="0.33" height="0.33" transform="translate(17.29 69.35) rotate(-36.87)"/><rect class="cls-5" x="111.86" y="7.7" width="0.33" height="0.33" transform="translate(3.14 35.36) rotate(-18.19)"/><rect class="cls-5" x="112.4" y="6.35" width="0.33" height="0.33" transform="translate(0.31 17.14) rotate(-8.72)"/><rect class="cls-5" x="112.84" y="5.54" width="0.33" height="0.33" transform="translate(0.44 17.2) rotate(-8.72)"/><rect class="cls-5" x="113.87" y="6.22" width="0.33" height="0.33" transform="translate(0.35 17.36) rotate(-8.72)"/><rect class="cls-5" x="114.33" y="5.41" width="0.33" height="0.33" transform="translate(0.48 17.42) rotate(-8.72)"/><rect class="cls-5" x="114.94" y="6.61" width="0.33" height="0.33" transform="matrix(0.99, -0.15, 0.15, 0.99, 0.3, 17.53)"/><rect class="cls-5" x="115.38" y="5.81" width="0.33" height="0.33" transform="translate(0.43 17.59) rotate(-8.72)"/><rect class="cls-5" x="116.08" y="7.4" width="0.33" height="0.33" transform="translate(0.2 17.71) rotate(-8.72)"/><rect class="cls-5" x="116.54" y="6.58" width="0.33" height="0.33" transform="matrix(0.99, -0.15, 0.15, 0.99, 0.33, 17.77)"/></svg>